<svg width="22" height="32" viewBox="0 0 22 32" fill="none" xmlns="http://www.w3.org/2000/svg">
<path d="M11 32C17.0656 32 22 26.812 22 20.436C22 18.322 21.4509 16.252 20.3968 14.424L11.7517 0.441C11.5812 0.165 11.2961 0 10.9918 0C10.6865 0 10.4014 0.166 10.2318 0.441L1.58217 14.459C0.54725 16.257 0 18.324 0 20.435C0 26.812 4.93442 32 11 32ZM3.1185 15.55L10.9927 2.79L18.8613 15.516C19.7166 16.998 20.1676 18.7 20.1676 20.436C20.1676 25.71 16.0554 30 11.0009 30C5.94642 30 1.83425 25.709 1.83425 20.436C1.83333 18.701 2.28433 17.002 3.1185 15.55Z" fill="#676B5F"/>
</svg>
