<svg width="31" height="24" viewBox="0 0 31 24" fill="none" xmlns="http://www.w3.org/2000/svg">
<path d="M20.0271 9.00252H18.8485C19.6138 8.61005 20.1391 7.81376 20.1391 6.89446C20.1391 5.58687 19.0779 4.52527 17.7703 4.52527C16.4627 4.52527 15.4015 5.58687 15.4015 6.89446C15.4015 7.81414 15.926 8.61005 16.6928 9.00252H15.5135C14.9878 9.00252 14.5609 9.4283 14.5609 9.95399L14.2256 11.3339C14.2256 11.8596 14.6514 12.2861 15.1778 12.2861H20.3628C20.8885 12.2861 21.315 11.8596 21.315 11.3339L20.9793 9.95399C20.9793 9.4283 20.5528 9.00252 20.0271 9.00252Z" fill="#43E660"/>
<path d="M29.118 5.144C30.4479 4.42567 30.9426 2.76534 30.2246 1.43541C29.5059 0.10624 27.8456 -0.388794 26.516 0.329535C25.3644 0.95249 24.8402 2.28166 25.1884 3.49124L23.354 4.48244C22.1168 2.7275 20.0761 1.57734 17.7701 1.57734C14.7734 1.57734 12.2225 3.51925 11.3059 6.20976L7.37248 4.9525C7.64384 3.18203 6.59662 1.42784 4.83713 0.864686C2.8869 0.241731 0.800414 1.31695 0.176702 3.26643C-0.445875 5.21704 0.628969 7.30315 2.5792 7.92686C4.33869 8.48926 6.21021 7.66799 7.01596 6.06935L11.0247 7.35046C10.9698 7.69486 10.9422 8.04683 10.9422 8.40524C10.9422 12.1706 14.0055 15.2339 17.7705 15.2339C19.0584 15.2339 20.2645 14.8755 21.294 14.2529L23.1893 17.4093C21.8068 18.5686 21.4317 20.593 22.3904 22.189C23.4512 23.9557 25.744 24.5279 27.511 23.4671C29.2785 22.4055 29.8511 20.1135 28.7891 18.346C27.8308 16.75 25.8681 16.1294 24.1953 16.8064L22.2447 13.5577C23.6851 12.3046 24.5987 10.4603 24.5987 8.40562C24.5987 7.3656 24.3645 6.37931 23.9459 5.49597L25.7462 4.52332C26.5664 5.47667 27.9659 5.76696 29.118 5.144ZM17.7705 14.3964C14.4672 14.3964 11.7797 11.7085 11.7797 8.40524C11.7797 5.10237 14.4676 2.41488 17.7705 2.41488C21.0733 2.41488 23.7612 5.10275 23.7612 8.40524C23.7612 11.7085 21.0733 14.3964 17.7705 14.3964Z" fill="#43E660"/>
</svg>
