<svg width="136" height="22" viewBox="0 0 136 22" fill="none" xmlns="http://www.w3.org/2000/svg">
<path d="M1.19339 17.6532L2.29617 16.3998C2.57187 16.099 2.87262 16.099 3.09794 16.2745C3.7749 16.8509 5.47914 18.5553 7.75993 18.5553C10.2662 18.5553 11.7701 17.3522 11.7701 15.6981C11.7701 13.6429 9.51401 13.0664 7.35846 12.2393C4.07523 10.936 1.46852 9.48237 1.46852 6.34938C1.46852 3.79295 3.34829 0.88562 7.8596 0.88562C10.9423 0.88562 13.173 2.66513 13.7995 3.26667C14.0251 3.49224 14.1504 3.793 13.9499 4.04363L12.9724 5.32186C12.7719 5.5978 12.4962 5.69806 12.1704 5.47248C11.5188 4.97122 9.96487 3.56773 7.88459 3.56773C5.62893 3.56773 4.30059 4.82089 4.30059 6.34981C4.30059 8.07919 5.9547 8.78099 8.31091 9.68317C11.3185 10.8862 14.5767 12.2897 14.5767 15.7233C14.5767 18.6558 11.77 21.2621 7.78478 21.2621C4.17564 21.2621 1.94497 18.9314 1.31843 18.3299C1.11793 18.1545 0.942756 17.9292 1.19339 17.6532ZM23.1235 21.2623C26.6324 21.2623 29.5397 18.4805 29.5397 14.8965C29.5397 11.2372 26.6324 8.5054 23.1235 8.5054C19.6146 8.5054 16.7073 11.2374 16.7073 14.8965C16.7073 18.4805 19.6146 21.2623 23.1235 21.2623ZM23.1235 18.7061C20.9681 18.7061 19.364 16.9266 19.364 14.9216C19.364 12.8413 20.968 11.0618 23.1235 11.0618C25.2791 11.0618 26.883 12.8413 26.883 14.9216C26.883 16.9266 25.2791 18.7061 23.1235 18.7061ZM42.2969 18.8312C42.4472 19.0567 42.4468 19.2322 42.2713 19.4079C41.1685 20.4605 39.7149 21.2624 37.9604 21.2624C34.5016 21.2624 31.5442 18.4806 31.5442 14.9216C31.5442 11.3376 34.5016 8.50534 37.9604 8.50534C39.7147 8.50534 41.1433 9.23218 42.1711 10.2597C42.3465 10.4354 42.3465 10.6359 42.1961 10.8362L41.2437 12.0392C41.0933 12.2397 40.943 12.2648 40.6422 12.0643C40.0156 11.4377 39.1635 11.0617 38.0356 11.0617C35.6549 11.0617 34.1762 12.9163 34.1762 14.8964C34.1762 16.8513 35.6549 18.731 38.0609 18.731C39.1888 18.731 39.9908 18.3049 40.7176 17.5781C40.9933 17.3525 41.169 17.4277 41.3445 17.6282L42.2969 18.8312ZM46.6578 4.06959C45.831 4.06959 45.1543 3.41794 45.1543 2.56587C45.1543 1.73878 45.831 1.06215 46.6578 1.06215C47.4849 1.06215 48.1615 1.73886 48.1615 2.56587C48.1615 3.41802 47.4848 4.06959 46.6578 4.06959ZM47.6353 8.68057H45.7054C45.4547 8.68057 45.3044 8.85626 45.3044 9.08158V20.0844C45.3044 20.6608 45.6552 21.0867 46.2568 21.0867H47.6603C47.8859 21.0867 48.0363 20.9365 48.0363 20.6608V9.08163C48.0363 8.8563 47.8608 8.68057 47.6353 8.68057ZM62.0968 20.5354C61.771 18.0793 61.7466 15.7988 61.8466 13.3929C61.972 10.4354 60.3429 8.53065 57.2852 8.53065C55.2802 8.53065 53.1999 9.13217 51.9718 9.80888C51.7463 9.9342 51.5959 10.1595 51.6961 10.3851L52.3227 11.8388C52.423 12.0894 52.5984 12.1646 52.9242 12.0142C54.5282 11.2873 55.8316 10.9365 57.1098 10.9365C58.4632 10.9365 59.2652 11.4628 59.215 12.8914C54.5783 13.6931 51.0445 14.5202 51.0445 17.7784C51.0445 19.959 52.6235 21.2119 55.1799 21.2119C57.3104 21.2119 58.413 20.5605 59.4657 19.7585C59.5908 20.5104 59.8163 21.0868 60.3176 21.0868H61.8213C62.0466 21.0868 62.1218 20.8111 62.0968 20.5354ZM55.656 19.057C54.6284 19.057 53.8264 18.7061 53.8264 17.7537C53.8264 16.2248 56.6332 15.7235 59.1649 15.1972C59.1398 16.0243 59.1398 17.1271 59.1649 17.8539C58.3378 18.4805 56.9342 19.057 55.656 19.057ZM67.8115 1.03671H65.8814C65.631 1.03671 65.4803 1.21215 65.4803 1.43773V20.0845C65.4803 20.661 65.8315 21.0868 66.4581 21.0868H67.8115C68.0621 21.0868 68.2125 20.9367 68.2125 20.661V1.43748C68.2125 1.21191 68.0371 1.03671 67.8115 1.03671ZM79.5659 1.03671C83.927 1.03671 86.4334 4.72097 86.4334 7.7537C86.4334 10.9618 83.9271 14.5208 79.566 14.5208H74.5784V20.6612C74.5784 20.9369 74.4283 21.0871 74.1774 21.0871H72.1472C71.8966 21.0871 71.7462 20.9369 71.7462 20.6612V1.43774C71.7462 1.21218 71.8966 1.03673 72.1472 1.03673L79.5659 1.03671ZM79.3408 11.7886C82.0978 11.7886 83.6266 9.75842 83.6266 7.7534C83.6266 5.77338 82.0978 3.76837 79.3408 3.76837H74.5789V11.7886H79.3408ZM99.3658 20.5354C99.04 18.0793 99.0157 15.7988 99.1157 13.3929C99.241 10.4354 97.612 8.53065 94.5542 8.53065C92.5492 8.53065 90.4689 9.13217 89.2409 9.80888C89.0153 9.9342 88.8649 10.1595 88.9652 10.3851L89.5918 11.8388C89.692 12.0894 89.8674 12.1646 90.1933 12.0142C91.7972 11.2873 93.1006 10.9365 94.3788 10.9365C95.7322 10.9365 96.5342 11.4628 96.4841 12.8914C91.8474 13.6931 88.3135 14.5202 88.3135 17.7784C88.3135 19.959 89.8925 21.2119 92.4489 21.2119C94.5795 21.2119 95.682 20.5605 96.7347 19.7585C96.8598 20.5104 97.0854 21.0868 97.5866 21.0868H99.0904C99.3157 21.0868 99.3909 20.8111 99.3658 20.5354ZM92.9251 19.057C91.8975 19.057 91.0954 18.7061 91.0954 17.7537C91.0954 16.2248 93.9022 15.7235 96.4339 15.1972C96.4089 16.0243 96.4089 17.1271 96.4339 17.8539C95.6069 18.4805 94.2033 19.057 92.9251 19.057ZM101.947 19.2825L102.799 17.9293C102.975 17.6534 103.125 17.5782 103.376 17.7035C103.401 17.7536 104.93 18.6559 106.609 18.6559C108.062 18.6559 108.564 18.0795 108.564 17.503C108.564 16.6509 107.636 16.3503 105.957 15.9243C103.576 15.2977 101.997 14.0697 101.997 12.1648C101.997 10.285 103.601 8.53065 106.609 8.53065C108.438 8.53065 109.691 9.15724 110.694 9.73369C110.945 9.88406 111.07 10.1096 110.92 10.3101L109.992 11.7387C109.867 11.9392 109.666 12.0144 109.441 11.9392C108.789 11.6137 107.737 11.1372 106.609 11.1372C105.205 11.1372 104.829 11.839 104.829 12.2651C104.829 12.9919 105.882 13.3428 107.16 13.6934C109.391 14.2949 111.621 15.3727 111.621 17.5532C111.621 19.6585 109.617 21.2623 106.609 21.2623C104.554 21.2623 102.699 20.26 102.072 19.7587C101.897 19.6585 101.847 19.4078 101.947 19.2825ZM121.396 20.2851C121.472 20.4856 121.321 20.6104 121.146 20.7357C120.72 21.0114 119.793 21.2119 118.865 21.2119C116.183 21.2119 115.206 19.8334 115.206 16.6003V11.3119H113.727C113.502 11.3119 113.326 11.1616 113.326 10.9109V10.4848C113.326 10.2843 113.376 10.1342 113.527 9.98358C114.98 8.80561 116.133 7.57784 117.136 5.0461C117.211 4.87066 117.286 4.7704 117.412 4.7704H117.687C117.888 4.7704 117.963 4.87066 117.963 5.09623V8.68023H120.595C120.82 8.68023 121.021 8.85592 121.021 9.10656V10.9111C121.021 11.1366 120.82 11.3121 120.595 11.3121H118.414C118.214 11.3121 118.038 11.287 117.938 11.2369V16.3497C117.938 17.8034 118.113 18.6305 119.341 18.6305C119.868 18.6305 120.219 18.5554 120.519 18.4802C120.82 18.405 121.021 18.5303 121.071 18.8062L121.396 20.2851ZM133.978 15.8987C134.88 15.8987 135.507 15.4476 135.507 14.395C135.507 11.3123 133.126 8.50504 129.467 8.50504C125.983 8.50504 123.251 11.262 123.251 14.8711C123.251 18.6304 126.108 21.2119 129.617 21.2119C131.848 21.2119 133.602 20.3097 134.68 18.856C134.83 18.6555 134.78 18.5051 134.63 18.3046L134.154 17.678C133.953 17.4276 133.753 17.4525 133.502 17.6029C132.7 18.2545 131.372 18.8061 129.918 18.8061C127.863 18.8061 126.409 17.553 126.134 15.8988L133.978 15.8987ZM126.133 13.7683C126.234 12.5653 127.362 11.0113 129.417 11.0113C131.497 11.0113 132.575 12.5903 132.65 13.7683H126.133Z" fill="black" stroke="black"/>
</svg>
